<?xml version="1.0" encoding="UTF-8"?>
<svg id="Capa_1" data-name="Capa 1" xmlns="http://www.w3.org/2000/svg" viewBox="0 0 623.62 340.16">
  <defs>
    <style>
      .cls-1 {
        fill: #133250;
      }
    </style>
  </defs>
  <g>
    <path class="cls-1" d="M286.24,86.7h-15.65l-.78,.78v43.81l-.78,.78h-9.39l-.78-.78v-43.81l-.78-.78h-15.65l-.78-.78v-7.82l.78-.78h43.81l.78,.78v7.82l-.78,.78Z"/>
    <path class="cls-1" d="M330.07,109.39v.78l10.17,13.3v7.82l-.78,.78h-4.69l-1.57-.78-15.65-20.34-1.57-.78h-7.82l-.78,.78v20.34l-.78,.78h-9.39l-.78-.78v-53.2l.78-.78h25.82c10.95,0,18.78,5.48,18.78,16.43,0,8.61-5.48,14.08-11.73,15.65Zm-7.04-22.69h-14.87l-.78,.78v12.52l.78,.78h14.87c4.69,0,7.82-1.57,7.82-7.04s-3.13-7.04-7.82-7.04Z"/>
    <path class="cls-1" d="M395.01,132.08h-7.04l-.78-.78-3.91-10.17-1.57-.78h-19.56l-1.57,.78-3.91,10.17-.78,.78h-7.04l-.78-.78v-7.82l18-45.38,.78-.78h10.17l.78,.78,17.99,45.38v7.82l-.78,.78Zm-22.69-40.68h-.78l-7.04,18.78,.78,.78h13.3l.78-.78-7.04-18.78Z"/>
    <path class="cls-1" d="M405.98,77.32h10.95l1.57,.78,21.12,35.99h.78v-35.99l.78-.78h9.39l.78,.78v53.2l-.78,.78h-10.95l-1.57-.78-21.12-35.99h-.78v35.99l-.78,.78h-9.39l-.78-.78v-53.2l.78-.78Z"/>
    <path class="cls-1" d="M485.01,132.86c-15.65,0-22.69-7.82-22.69-17.99l.78-.78h9.39l.78,.78c0,5.48,3.13,8.61,12.52,8.61,7.04,0,10.95-2.35,10.95-7.04,0-5.48-3.13-7.04-14.08-8.61-10.95-1.56-19.56-5.48-19.56-16.43,0-7.82,6.26-14.86,21.12-14.86s21.12,7.04,21.12,16.43l-.78,.78h-9.39l-.78-.78c0-4.7-2.35-7.04-10.95-7.04-7.04,0-9.39,2.35-9.39,5.48,0,4.69,3.13,6.26,14.08,7.82,10.95,1.57,19.56,6.26,19.56,17.21,0,8.61-6.26,16.43-22.69,16.43Z"/>
    <path class="cls-1" d="M290.15,204.76h-9.39l-.78-.78v-21.91l-.78-.78h-21.12l-.78,.78v21.91l-.78,.78h-9.39l-.78-.78v-53.2l.78-.78h9.39l.78,.78v20.34l.78,.78h21.12l.78-.78v-20.34l.78-.78h9.39l.78,.78v53.2l-.78,.78Z"/>
    <path class="cls-1" d="M347.51,183.63c0,14.08-7.82,21.91-21.91,21.91s-21.91-7.82-21.91-21.91v-32.86l.78-.78h9.39l.78,.78v32.86c0,7.82,3.13,12.52,10.95,12.52s10.95-4.69,10.95-12.52v-32.86l.78-.78h9.39l.78,.78v32.86Z"/>
    <path class="cls-1" d="M417.7,204.76h-9.39l-.78-.78v-30.51h-.78l-12.52,30.51-.78,.78h-8.61l-.78-.78-12.52-30.51h-.78v30.51l-.78,.78h-9.39l-.78-.78v-53.2l.78-.78h11.73l.78,.78,15.65,38.33h.78l15.65-38.33,.78-.78h11.73l.78,.78v53.2l-.78,.78Z"/>
    <path class="cls-1" d="M474.83,204.76h-7.04l-.78-.78-3.91-10.17-1.57-.78h-19.56l-1.57,.78-3.91,10.17-.78,.78h-7.04l-.78-.78v-7.82l18-45.38,.78-.78h10.17l.78,.78,18,45.38v7.82l-.78,.78Zm-22.69-40.68h-.78l-7.04,18.78,.78,.78h13.3l.78-.78-7.04-18.78Z"/>
    <path class="cls-1" d="M485.79,149.99h10.95l1.57,.78,21.12,35.99h.78v-35.99l.78-.78h9.39l.78,.78v53.2l-.78,.78h-10.95l-1.57-.78-21.12-35.99h-.78v35.99l-.78,.78h-9.39l-.78-.78v-53.2l.78-.78Z"/>
    <path class="cls-1" d="M585.16,159.38h-15.65l-.78,.78v43.81l-.78,.78h-9.39l-.78-.78v-43.81l-.78-.78h-15.65l-.78-.78v-7.82l.78-.78h43.81l.78,.78v7.82l-.78,.78Z"/>
  </g>
  <g>
    <polygon class="cls-1" points="223.38 194.01 175.29 150 173.83 149.99 131.3 187.83 130.6 187.84 129.87 187.83 87.31 149.99 85.86 150 37.74 194 37.68 195.54 45.91 204.54 47.44 204.61 86.6 168.79 129.87 206.97 131.31 206.97 174.54 168.79 213.69 204.6 215.22 204.54 223.45 195.54 223.38 194.01"/>
    <polygon class="cls-1" points="129.84 142.92 131.29 142.92 193.49 87.46 193.54 85.89 184.92 77.23 183.43 77.19 131.28 123.64 130.57 123.64 129.84 123.64 77.99 77.17 76.5 77.21 67.86 85.85 67.91 87.42 129.84 142.92"/>
  </g>
  <g>
    <path class="cls-1" d="M266.98,234.7l-.46,.46h-15.15l-.46,.46v9.18l.46,.46h14.23l.46,.46v3.21l-.46,.46h-14.23l-.46,.46v12.86l-.46,.46h-3.67l-.46-.46v-31.22l.46-.46h19.74l.46,.46v3.21Z"/>
    <path class="cls-1" d="M294.07,262.71l-.46,.46h-20.66l-.46-.46v-31.22l.46-.46h20.66l.46,.46v3.21l-.46,.46h-16.07l-.46,.46v8.72l.46,.46h15.15l.46,.46v3.21l-.46,.46h-15.15l-.46,.46v9.18l.46,.46h16.07l.46,.46v3.21Z"/>
    <path class="cls-1" d="M323.92,254.44c0,2.69-1.03,4.9-3.1,6.61-2.07,1.71-5.17,2.57-9.3,2.57s-7.12-.91-9.41-2.73c-2.3-1.82-3.44-4.43-3.44-7.83l.46-.46h3.67l.46,.46c0,4.29,2.91,6.43,8.72,6.43,2.23,0,4.02-.41,5.35-1.22,1.33-.81,2-2.09,2-3.83,0-1.96-.67-3.32-2-4.09-1.33-.77-3.73-1.39-7.19-1.88-7.04-1.01-10.56-4.07-10.56-9.18,0-2.36,.96-4.4,2.87-6.13,1.91-1.73,4.78-2.59,8.61-2.59s6.54,.79,8.7,2.36c2.16,1.58,3.24,4,3.24,7.28l-.46,.46h-3.67l-.46-.46c0-1.9-.58-3.29-1.75-4.18-1.16-.89-3.18-1.33-6.06-1.33-2.02,0-3.6,.41-4.73,1.24-1.13,.83-1.7,1.94-1.7,3.35,0,1.78,.61,3.02,1.84,3.72,1.22,.7,3.52,1.3,6.89,1.79,3.55,.52,6.27,1.51,8.17,2.96,1.9,1.45,2.85,3.68,2.85,6.68Z"/>
    <path class="cls-1" d="M351.92,234.7l-.46,.46h-9.64l-.46,.46v27.09l-.46,.46h-3.67l-.46-.46v-27.09l-.46-.46h-9.64l-.46-.46v-3.21l.46-.46h24.79l.46,.46v3.21Z"/>
    <path class="cls-1" d="M361.11,262.71l-.46,.46h-3.67l-.46-.46v-31.22l.46-.46h3.67l.46,.46v31.22Z"/>
    <path class="cls-1" d="M392.33,234.7l-10.56,28.01-.46,.46h-4.13l-.46-.46-10.56-28.01v-3.21l.46-.46h2.75l.46,.46,9.18,25.25h.46l9.18-25.25,.46-.46h2.75l.46,.46v3.21Z"/>
    <path class="cls-1" d="M419.88,262.71l-.46,.46h-2.75l-.46-.46-2.75-6.89-.92-.46h-12.4l-.92,.46-2.75,6.89-.46,.46h-2.75l-.46-.46v-3.21l11.02-28.01,.46-.46h4.13l.46,.46,11.02,28.01v3.21Zm-8.26-11.94l-5.05-12.86h-.46l-5.05,12.86,.46,.46h9.64l.46-.46Z"/>
    <path class="cls-1" d="M445.13,262.71l-.46,.46h-19.74l-.46-.46v-31.22l.46-.46h3.67l.46,.46v27.09l.46,.46h15.15l.46,.46v3.21Z"/>
  </g>
</svg>